{"title":"The Secret Life of Walter Mitty (2013) DVDSCR XviD-MAX","uid":9457412,"size":1639711090,"categoryP":"video","categoryS":"movies","magnet":"?xt=urn:btih:a6dac70bab46b95404a2475beb5fe9dd93c2b2f7&amp;dn=The+Secret+Life+of+Walter+Mitty+%282013%29+DVDSCR+XviD-MAX&amp;tr=udp%3A%2F%2Ftracker.openbittorrent.com%3A80&amp;tr=udp%3A%2F%2Fopen.demonii.com%3A1337&amp;tr=udp%3A%2F%2Ftracker.coppersurfer.tk%3A6969&amp;tr=udp%3A%2F%2Fexodus.desync.com%3A6969","seeders":22,"leechers":1,"uploader":"extremezone","files":-1,"time":1389295271,"description":" &lt;a href=&quot;http://img401.imageshack.us/img401/5004/ln17.jpg&quot; rel=&quot;nofollow&quot; target=&quot;_NEW&quot;&gt;http://img401.imageshack.us/img401/5004/ln17.jpg&lt;/a&gt;\n\nScreens:\n &lt;a href=&quot;\nhttp://img829.imageshack.us/img829/2819/6wyc.jpg&quot; rel=&quot;nofollow&quot; target=&quot;_NEW&quot;&gt;\nhttp://img829.imageshack.us/img829/2819/6wyc.jpg&lt;/a&gt; &lt;a href=&quot;\nhttp://img842.imageshack.us/img842/3139/9p0k.jpg&quot; rel=&quot;nofollow&quot; target=&quot;_NEW&quot;&gt;\nhttp://img842.imageshack.us/img842/3139/9p0k.jpg&lt;/a&gt; &lt;a href=&quot;\nhttp://img28.imageshack.us/img28/6541/hx36.jpg&quot; rel=&quot;nofollow&quot; target=&quot;_NEW&quot;&gt;\nhttp://img28.imageshack.us/img28/6541/hx36.jpg&lt;/a&gt; &lt;a href=&quot;\nhttp://img7.imageshack.us/img7/7353/1pdp.jpg&quot; rel=&quot;nofollow&quot; target=&quot;_NEW&quot;&gt;\nhttp://img7.imageshack.us/img7/7353/1pdp.jpg&lt;/a&gt;\n\nScreenCaps:\n &lt;a href=&quot;\nhttp://img843.imageshack.us/img843/3435/x1am.jpg&quot; rel=&quot;nofollow&quot; target=&quot;_NEW&quot;&gt;\nhttp://img843.imageshack.us/img843/3435/x1am.jpg&lt;/a&gt;\n\nThe Secret Life of Walter Mitty (2013) DVDSCR XviD-MAX\nFormat                                   : AVI\nFormat/Info                              : Audio Video Interleave\nFormat profile                           : OpenDML\nFormat settings                          : rec\nFile size                                : 1.52 GiB\nDuration                                 : 1h 52mn\nOverall bit rate                         : 1 933 Kbps\nWriting application                      : VirtualDubMod 1.5.10.2 (build 2542/release)\nWriting library                          : VirtualDubMod build 2542/release\nOriginal source form                     : MAX TORRENTZ\nCopyright                                : SIGISMUNT\n\nVideo\nID                                       : 0\nFormat                                   : MPEG-4 Visual\nFormat profile                           : Advanced Simple@L5\nFormat settings, BVOP                    : 2\nFormat settings, QPel                    : No\nFormat settings, GMC                     : No warppoints\nFormat settings, Matrix                  : Default (MPEG)\nMuxing mode                              : Packed bitstream\nCodec ID                                 : XVID\nCodec ID/Hint                            : XviD\nDuration                                 : 1h 52mn\nBit rate                                 : 1 610 Kbps\nWidth                                    : 720 pixels\nHeight                                   : 304 pixels\nDisplay aspect ratio                     : 2.35:1\nFrame rate                               : 23.976 fps\nColor space                              : YUV\nChroma subsampling                       : 4:2:0\nBit depth                                : 8 bits\nScan type                                : Progressive\nCompression mode                         : Lossy\nBits/(Pixel*Frame)                       : 0.307\nStream size                              : 1.27 GiB (83%)\nWriting library                          : XviD 64\n\nAudio\nID                                       : 1\nFormat                                   : MPEG Audio\nFormat version                           : Version 1\nFormat profile                           : Layer 3\nCodec ID                                 : 55\nCodec ID/Hint                            : MP3\nDuration                                 : 1h 52mn\nBit rate mode                            : Constant\nBit rate                                 : 320 Kbps\nChannel(s)                               : 2 channels\nSampling rate                            : 44.1 KHz\nCompression mode                         : Lossy\nStream size                              : 258 MiB (17%)\nAlignment                                : Aligned on interleaves\nInterleave, duration                     : 472 ms (11.33 video frames)\nInterleave, preload duration             : 208 ms\n\nSource: Original VOBS (good a/v/sync quality,sample included)\nThis torrent is not seedbox supported,please seed it to the MAX\n\nUploader Note: Watchable quality, original complete video and audio, see sample\n\nNote: If you have something to offer as early releases,seedboxes,\ncontact us on &lt;a href=&quot; http://torentz.3xforum.ro&quot; rel=&quot;nofollow&quot; target=&quot;_NEW&quot;&gt; http://torentz.3xforum.ro&lt;/a&gt; or &lt;a href=&quot; http://torentz.tk&quot; rel=&quot;nofollow&quot; target=&quot;_NEW&quot;&gt; http://torentz.tk&lt;/a&gt;\n\nThe Secret Life of Walter Mitty (2013) DVDSCR XviD-MAX Torrent Free Download\n\nHow To Get Your MAXSPEED (uTorrent)\n\nTorrent Client - Preferences - Bandwidth - Number of connections - Set aprox. 500 for each\nTorrent Client - Preferences - BiTorrent - Protocol Encryption - Forced\nBandwidth Allocation - High (Set download/upload limit - Unlimited)\nStop Other Active Torrents - Start downloading and wait for connections.\nEnjoy and Seed for at least 1:1 ratio. Don't forget to say thanks/leave reviews.\nIf screens/Caps image host is dead googlesearch &quot;release name&quot;+&quot;screens&quot; or &quot;sample&quot;.\nGreets to all actual/future p2p/scene QUALITY groups and affiliate websites.\nDon't trust IMDb robot or bad ratings,always watch some trailers first.\nIgnore stupid comments/fake/mislabeled/no-DVDrips/CAM/TS/RAR uploads.\nPlease spread this release/torrent to your friends/forums/etc.\nIf you need translation subs visit some subtitles sites.\nReport if you see online streaming or other spam links.\nRecommended movie player VLC PLAYER.","torrent":{"xt":"urn:btih:a6dac70bab46b95404a2475beb5fe9dd93c2b2f7","amp;dn":"The+Secret+Life+of+Walter+Mitty+%282013%29+DVDSCR+XviD-MAX","amp;tr":["udp%3A%2F%2Ftracker.openbittorrent.com%3A80","udp%3A%2F%2Fopen.demonii.com%3A1337","udp%3A%2F%2Ftracker.coppersurfer.tk%3A6969","udp%3A%2F%2Fexodus.desync.com%3A6969"],"infoHash":"a6dac70bab46b95404a2475beb5fe9dd93c2b2f7","infoHashBuffer":{"type":"Buffer","data":[166,218,199,11,171,70,185,84,4,162,71,91,235,95,233,221,147,194,178,247]},"announce":[],"urlList":[]}}